<?xml version="1.0" encoding="UTF-8"?>
<svg xmlns="http://www.w3.org/2000/svg" viewBox="0 0 1080 1920">
  <defs>
    <style>
      .cls-1 {
        fill: #049165;
      }
    </style>
  </defs>
  <g id="Layer_10" data-name="Layer 10">
    <path class="cls-1" d="m505.52,526.65c0,2.6.49,5.05,1.48,7.35.98,2.3,2.32,4.3,4.02,6,1.7,1.7,3.69,3.04,6,4.02,2.3.98,4.75,1.48,7.35,1.48,1.88,0,3.66-.25,5.34-.75,1.67-.5,3.24-1.21,4.71-2.14l8.79,9.17c-2.64,2.01-5.55,3.56-8.73,4.65-3.18,1.09-6.55,1.63-10.11,1.63-2.89,0-5.67-.38-8.35-1.13-2.68-.75-5.18-1.81-7.51-3.17-2.32-1.36-4.44-2.99-6.34-4.9-1.91-1.9-3.54-4.02-4.9-6.34-1.36-2.32-2.42-4.83-3.17-7.51-.75-2.68-1.13-5.46-1.13-8.35,0-2.6-.49-5.05-1.48-7.35-.98-2.3-2.32-4.3-4.02-6s-3.7-3.04-6-4.02c-2.3-.98-4.75-1.48-7.35-1.48h-13.44l-10.11,50.25h-14.13l12.56-62.81h-18.84v-31.4h12.56v18.84h22.93l-2.76,12.56h11.24c4.31,0,8.39.83,12.22,2.48,3.83,1.65,7.16,3.89,9.99,6.72,2.83,2.83,5.07,6.16,6.72,9.99,1.65,3.83,2.48,7.9,2.48,12.22Z"/>
  </g>
  <g id="Layer_9" data-name="Layer 9">
    <path class="cls-1" d="m572.59,533.74h-31.64v-15.44h31.64v15.44Z"/>
  </g>
  <g id="Layer_8" data-name="Layer 8">
    <path class="cls-1" d="m630.09,489.23c-3.22-4.12-9.65-6.05-14.54-6.05-5.66,0-13.51,2.57-13.51,9.39,0,16.59,41.93,5.92,41.93,37.82,0,20.32-16.34,29.97-35.12,29.97-11.71,0-22-3.47-30.61-11.45l14.28-15.69c4.12,5.4,10.81,8.62,17.49,8.62s13.89-3.09,13.89-9.52c0-16.72-42.71-7.72-42.71-38.07,0-19.42,16.85-29.59,34.73-29.59,10.29,0,20.2,2.7,27.91,9.52l-13.76,15.05Z"/>
  </g>
  <g id="Layer_7" data-name="Layer 7">
    <path class="cls-1" d="m698.78,515.73c-1.93-2.7-5.53-4.76-9.52-4.76-9.65,0-15.44,6.43-15.44,15.82s5.79,15.82,15.44,15.82c4.25,0,7.33-2.19,9.52-4.76l12.73,13.38c-6.05,6.17-14.92,8.36-22.25,8.36-19.29,0-34.73-12.86-34.73-32.8s15.44-32.8,34.73-32.8c7.33,0,16.21,2.19,22.25,8.36l-12.73,13.38Z"/>
  </g>
  <g id="Layer_6" data-name="Layer 6">
    <path class="cls-1" d="m757.7,550.2h-.26c-4.25,6.69-11.96,9.39-19.81,9.39-11.71,0-22.25-6.69-22.25-19.29,0-21.61,26.24-22,42.32-22,0-6.82-5.66-11.19-12.35-11.19-6.3,0-11.58,2.83-15.69,7.46l-10.29-10.55c7.08-6.69,17.37-10.03,27.53-10.03,22.51,0,28.56,11.45,28.56,32.29v31.77h-17.75v-7.85Zm-4.76-19.55c-5.92,0-19.04.51-19.04,9,0,4.63,4.89,6.82,9.13,6.82,7.59,0,14.66-3.99,14.66-11.71v-4.12h-4.76Z"/>
  </g>
  <g id="Layer_5" data-name="Layer 5">
    <path class="cls-1" d="m787.54,495.54h18.52v8.49h.26c2.57-4.89,8.88-10.03,18.27-10.03,19.55,0,23.15,12.86,23.15,29.59v34.47h-19.29v-30.61c0-7.2-.13-16.46-10.03-16.46s-11.58,7.85-11.58,15.95v31.13h-19.29v-62.52Z"/>
  </g>
  <g id="Layer_4" data-name="Layer 4">
    <g>
      <path class="cls-1" d="m351.02,505.08c-.67,1.45-1.6,2.58-3.36,2.66-2.13.09-3.75-1.46-3.75-3.63-.01-6.82,0-13.64,0-20.46,0-3.06-1.34-4.38-4.41-4.38-6.82,0-13.64,0-20.45,0-1.82,0-3.36-1.32-3.58-3-.24-1.8.78-3.45,2.5-3.95.45-.13.95-.14,1.42-.14,6.85,0,13.71,0,20.56,0,5.55,0,9.56,3.18,10.86,8.6.04.18.13.34.2.51v23.8Z"/>
      <path class="cls-1" d="m246.28,586.05c-1.27-.48-2.64-.79-3.79-1.47-3.45-2.03-5.29-5.12-5.31-9.15-.04-7.08-.02-14.16,0-21.24,0-2.18,1.48-3.72,3.54-3.72,2.06,0,3.56,1.54,3.56,3.71,0,6.82,0,13.64,0,20.46,0,2.92,1.37,4.3,4.27,4.3,6.6,0,13.19,0,19.79,0,2.46,0,3.93.93,4.35,2.76.41,1.8-.44,3.22-2.61,4.35h-23.79Z"/>
      <path class="cls-1" d="m318.11,586.05c-1.4-.66-2.54-1.54-2.66-3.24-.15-2.19,1.39-3.86,3.61-3.87,6.82-.01,13.63,0,20.45,0,3.08,0,4.4-1.31,4.4-4.39,0-6.52,0-13.04,0-19.56,0-2.56.83-3.94,2.65-4.43,1.82-.48,3.27.35,4.46,2.58v23.8c-.08.28-.18.56-.25.84-.66,2.65-2.02,4.89-4.34,6.33-1.38.86-3.01,1.31-4.53,1.95h-23.79Z"/>
      <path class="cls-1" d="m237.17,493.13c0-3.41,0-6.82,0-10.22.02-6.03,4.68-10.72,10.68-10.74,7.04-.02,14.07,0,21.11,0,2.24,0,3.8,1.5,3.78,3.6-.02,2.03-1.58,3.5-3.76,3.51-6.78,0-13.56,0-20.33,0-3.06,0-4.36,1.32-4.36,4.42,0,6.85,0,13.71,0,20.56,0,1.74-1.34,3.25-3,3.47-1.78.24-3.45-.8-3.95-2.5-.12-.42-.14-.87-.14-1.31-.01-3.59,0-7.19,0-10.78Z"/>
    </g>
  </g>
  <g id="Layer_3" data-name="Layer 3">
    <path class="cls-1" d="m363.21,638.68l5.29-14.63h-126.79c-19.17,0-34.71-15.54-34.71-34.71v-115.39c0-25.36,20.55-45.91,45.91-45.91h91.93c20.42,0,36.98,16.56,36.98,36.98v33.98c0,21.02-17.04,38.05-38.05,38.05h-106.61v-13.11h109.81c12.01,0,21.74-9.74,21.74-21.74v-43.45c0-9.72-7.88-17.61-17.61-17.61h-104.1c-14.86,0-26.9,12.05-26.9,26.9v125.89c0,9.39,7.61,17.01,17.01,17.01h131.39l-5.29-14.63c9.74,8.5,25.42,16.49,38.09,21.19-12.67,4.7-28.35,12.71-38.09,21.19Z"/>
  </g>
  <g id="Layer_2" data-name="Layer 2">
    <g>
      <path class="cls-1" d="m504.08,610.48l1.09-2.14c1.88,1.84,5.23,3.2,8.69,3.2,4.93,0,7.07-2.07,7.07-4.66,0-7.22-16.21-2.78-16.21-12.52,0-3.87,3.01-7.22,9.7-7.22,2.97,0,6.06.87,8.16,2.33l-.94,2.22c-2.26-1.47-4.89-2.18-7.22-2.18-4.81,0-6.96,2.14-6.96,4.78,0,7.22,16.21,2.86,16.21,12.45,0,3.87-3.08,7.18-9.82,7.18-3.95,0-7.82-1.39-9.78-3.42Z"/>
      <path class="cls-1" d="m527.18,603.78c0-5.91,4.29-10.04,10.19-10.04,3.35,0,6.17,1.32,7.75,3.91l-1.99,1.35c-1.35-1.99-3.46-2.93-5.75-2.93-4.33,0-7.48,3.08-7.48,7.71s3.16,7.71,7.48,7.71c2.29,0,4.4-.9,5.75-2.9l1.99,1.35c-1.58,2.56-4.4,3.91-7.75,3.91-5.91,0-10.19-4.17-10.19-10.08Z"/>
      <path class="cls-1" d="m565.28,601.41v12.26h-2.56v-3.08c-1.2,2.03-3.54,3.27-6.81,3.27-4.48,0-7.22-2.33-7.22-5.75,0-3.05,1.96-5.6,7.64-5.6h6.28v-1.2c0-3.39-1.92-5.23-5.6-5.23-2.56,0-4.96.9-6.58,2.33l-1.2-1.99c1.99-1.69,4.93-2.67,8.05-2.67,5.12,0,8.01,2.56,8.01,7.67Zm-2.67,6.32v-3.23h-6.21c-3.84,0-5.08,1.5-5.08,3.54,0,2.29,1.84,3.72,5,3.72s5.23-1.43,6.28-4.02Z"/>
      <path class="cls-1" d="m590.74,602.2v11.47h-2.67v-11.21c0-4.18-2.18-6.32-5.94-6.32-4.25,0-6.92,2.63-6.92,7.15v10.38h-2.67v-19.78h2.56v3.65c1.43-2.41,4.1-3.8,7.52-3.8,4.81,0,8.12,2.78,8.12,8.46Z"/>
      <path class="cls-1" d="m618.27,612.47c-1.05.94-2.63,1.39-4.17,1.39-3.72,0-5.79-2.11-5.79-5.75v-11.96h-3.54v-2.26h3.54v-4.33h2.67v4.33h6.02v2.26h-6.02v11.81c0,2.33,1.2,3.61,3.42,3.61,1.09,0,2.18-.34,2.93-1.02l.94,1.92Z"/>
      <path class="cls-1" d="m620.42,603.78c0-5.87,4.29-10.04,10.08-10.04s10.04,4.18,10.04,10.04-4.25,10.08-10.04,10.08-10.08-4.21-10.08-10.08Zm17.41,0c0-4.63-3.12-7.71-7.33-7.71s-7.37,3.08-7.37,7.71,3.16,7.71,7.37,7.71,7.33-3.08,7.33-7.71Z"/>
      <path class="cls-1" d="m674.39,613.68l-6.02-8.46c-.68.08-1.35.11-2.11.11h-7.07v8.35h-2.78v-26.33h9.85c6.7,0,10.76,3.39,10.76,9.03,0,4.14-2.18,7.03-6.02,8.27l6.43,9.03h-3.05Zm-.15-17.3c0-4.21-2.78-6.62-8.05-6.62h-7v13.2h7c5.27,0,8.05-2.44,8.05-6.58Z"/>
      <path class="cls-1" d="m700.27,604.61h-16.55c.3,4.14,3.46,6.88,7.79,6.88,2.41,0,4.55-.87,6.06-2.6l1.5,1.73c-1.77,2.11-4.51,3.23-7.64,3.23-6.17,0-10.38-4.21-10.38-10.08s4.1-10.04,9.67-10.04,9.59,4.1,9.59,10.04c0,.23-.04.53-.04.83Zm-16.55-1.99h14.03c-.34-3.87-3.16-6.58-7.03-6.58s-6.66,2.71-7,6.58Z"/>
      <path class="cls-1" d="m703.77,603.78c0-5.91,4.29-10.04,10.19-10.04,3.35,0,6.17,1.32,7.75,3.91l-1.99,1.35c-1.35-1.99-3.46-2.93-5.75-2.93-4.33,0-7.48,3.08-7.48,7.71s3.16,7.71,7.48,7.71c2.29,0,4.4-.9,5.75-2.9l1.99,1.35c-1.58,2.56-4.4,3.91-7.75,3.91-5.9,0-10.19-4.17-10.19-10.08Z"/>
      <path class="cls-1" d="m743.26,593.89l-9.89,22.15c-1.65,3.87-3.76,5.12-6.58,5.12-1.84,0-3.61-.6-4.81-1.81l1.24-1.99c.98.98,2.18,1.5,3.61,1.5,1.77,0,2.97-.83,4.1-3.31l.87-1.92-8.84-19.75h2.78l7.45,16.81,7.45-16.81h2.63Z"/>
      <path class="cls-1" d="m744.46,603.78c0-5.91,4.29-10.04,10.19-10.04,3.35,0,6.17,1.32,7.75,3.91l-1.99,1.35c-1.35-1.99-3.46-2.93-5.75-2.93-4.33,0-7.48,3.08-7.48,7.71s3.16,7.71,7.48,7.71c2.29,0,4.4-.9,5.75-2.9l1.99,1.35c-1.58,2.56-4.4,3.91-7.75,3.91-5.9,0-10.19-4.17-10.19-10.08Z"/>
      <path class="cls-1" d="m767.33,585.77h2.67v27.91h-2.67v-27.91Z"/>
      <path class="cls-1" d="m794.67,604.61h-16.55c.3,4.14,3.46,6.88,7.79,6.88,2.41,0,4.55-.87,6.06-2.6l1.5,1.73c-1.77,2.11-4.51,3.23-7.64,3.23-6.17,0-10.38-4.21-10.38-10.08s4.1-10.04,9.67-10.04,9.59,4.1,9.59,10.04c0,.23-.04.53-.04.83Zm-16.55-1.99h14.03c-.34-3.87-3.16-6.58-7.03-6.58s-6.66,2.71-7,6.58Z"/>
    </g>
  </g>
</svg>